<svg xmlns="http://www.w3.org/2000/svg" version="1.1" xmlns:xlink="http://www.w3.org/1999/xlink" xmlns:svgjs="http://svgjs.dev/svgjs" width="2000" height="1500" viewBox="0 0 2000 1500"><rect width="2000" height="1500" fill="#000000"></rect><g transform="matrix(0.75,0,0,0.75,249.090909090909,282.7536437246963)"><svg viewBox="0 0 396 247" data-background-color="#ffffff" preserveAspectRatio="xMidYMid meet" height="1247" width="2000" xmlns="http://www.w3.org/2000/svg" xmlns:xlink="http://www.w3.org/1999/xlink"><g id="tight-bounds" transform="matrix(1,0,0,1,0.2400000000000091,-0.09999999999999432)"><svg viewBox="0 0 395.52 247.2" height="247.2" width="395.52"><g><svg></svg></g><g><svg viewBox="0 0 395.52 247.2" height="247.2" width="395.52"><g transform="matrix(1,0,0,1,75.54432,78.09528600742817)"><svg viewBox="0 0 244.43135999999998 91.00942798514363" height="91.00942798514363" width="244.43135999999998"><g><svg viewBox="0 0 410.3056344970287 152.7696" height="91.00942798514363" width="244.43135999999998"><g transform="matrix(1,0,0,1,175.52467556845718,0)"><svg viewBox="0 0 234.78095892857147 152.7696" height="152.7696" width="234.78095892857147"><g id="textblocktransform"><svg viewBox="0 0 234.78095892857147 152.7696" height="152.7696" width="234.78095892857147" id="textblock"><g><svg viewBox="0 0 234.78095892857147 152.7696" height="152.7696" width="234.78095892857147"><g transform="matrix(1,0,0,1,0,0)"><svg width="234.78095892857147" viewBox="-1.9500000000000002 -40.15 69.85 45.8" height="152.7696" data-palette-color="#61777f"><path d="M2.05-36.15L7.8-36.15 19.7-6.25 16.95-6.8 28.25-36.15 33.9-36.15 17.95 1.65 2.05-36.15ZM41.15-36.15L50.45-36.15Q55.9-36.15 59.02-33.93 62.15-31.7 62.15-27L62.15-27Q62.15-24.15 60.85-22.05 59.55-19.95 57.22-18.75 54.9-17.55 51.75-17.4L51.75-17.4 51.05-19.9Q54.7-19.8 57.6-18.6 60.5-17.4 62.2-15.25 63.9-13.1 63.9-10.15L63.9-10.15Q63.9-7.45 62.9-5.53 61.9-3.6 60.2-2.38 58.5-1.15 56.35-0.58 54.2 0 51.9 0L51.9 0 41.15 0 41.15-36.15ZM46-20.3L51.45-20.3Q54.45-20.3 55.8-21.98 57.15-23.65 57.15-26.05L57.15-26.05Q57.15-28.9 55.4-30.2 53.65-31.5 50.7-31.5L50.7-31.5 46-31.5 46-20.3ZM46-4.5L51.65-4.5Q53.65-4.5 55.32-5.1 57-5.7 57.97-6.95 58.95-8.2 58.95-10.1L58.95-10.1Q58.95-12.2 57.82-13.4 56.7-14.6 54.95-15.13 53.2-15.65 51.35-15.65L51.35-15.65 46-15.65 46-4.5Z" opacity="1" transform="matrix(1,0,0,1,0,0)" fill="#ffffff" class="wordmark-text-0" data-fill-palette-color="primary" id="text-0"></path></svg></g></svg></g></svg></g></svg></g><g transform="matrix(1,0,0,1,0,18.037371358407505)"><svg viewBox="0 0 145.09463261785717 116.69485728318499" height="116.69485728318499" width="145.09463261785717"><g><svg xmlns="http://www.w3.org/2000/svg" xmlns:xlink="http://www.w3.org/1999/xlink" version="1.1" x="0" y="0" viewBox="0 9.786 100.00034525290006 80.42699999999999" enable-background="new 0 0 100 100" xml:space="preserve" width="145.09463261785717" height="116.69485728318499" class="icon-icon-0" data-fill-palette-color="accent" id="icon-0"><path d="M49.942 52.994c13.552-0.488 27.103-0.977 40.653-1.465-2.527-4.177-3.159-7.831-7.989-8.461-7.229-0.94-14.458-1.883-21.688-2.826-14.023-1.827-28.05-3.654-42.075-5.48C20.101 36.792 39.724 53.361 49.942 52.994z" fill="#ffffff" data-fill-palette-color="accent"></path><path d="M0 9.786c4.391 7.257 26.615 23.072 32.953 23.886 17.33 2.231 34.657 4.46 51.986 6.688-3.393-5.607-4.18-9.35-10.312-10.959-8.904-2.341-17.812-4.683-26.717-7.023C31.94 18.182 15.97 13.984 0 9.786z" fill="#ffffff" data-fill-palette-color="accent"></path><path d="M63.108 66.207c10.413-2.219 20.826-4.439 31.241-6.66-2.028-3.346-2.034-5.359-5.827-5.189-6.158 0.273-12.314 0.549-18.471 0.822-11.343 0.506-22.686 1.014-34.028 1.518C37.298 58.064 54.94 67.947 63.108 66.207z" fill="#ffffff" data-fill-palette-color="accent"></path><path d="M87.682 90.213c5.725-3.719 7.262-7.721 10.519-13.807 3.651-6.824 1.257-7.844-2.821-14.596-0.417-0.688-5.842 0.232-6.453 0.904-0.745 0.818-0.248 5.455-0.294 6.496C88.315 76.211 87.998 83.213 87.682 90.213z" fill="#ffffff" data-fill-palette-color="accent"></path><path d="M86.35 63.447c-3.795 0.809-8.604 0.191-9.572 4.229-1.373 5.736-2.746 11.475-4.12 17.211C81.904 82.678 86.028 71.582 86.35 63.447z" fill="#ffffff" data-fill-palette-color="accent"></path><path d="M74.666 66.121c-9.148 1.953-8.956 4.611-12.879 13.18C68.007 78.711 73.811 71.941 74.666 66.121z" fill="#ffffff" data-fill-palette-color="accent"></path></svg></g></svg></g></svg></g></svg></g><path d="M221.99 72.095L221.99 16.401 7.591 16.401 7.591 230.799 221.99 230.799 221.99 175.105 215.065 175.105 215.065 223.874 14.516 223.874 14.516 23.326 215.065 23.326 215.065 72.095Z" fill="#ffffff" stroke="transparent" data-fill-palette-color="tertiary"></path></svg></g><defs></defs></svg><rect width="395.52" height="247.2" fill="none" stroke="none" visibility="hidden"></rect></g></svg></g></svg>